<svg xmlns="http://www.w3.org/2000/svg" width="146.256" height="36" viewBox="0 0 146.256 36"><g fill="#785bc7" color="#785bc7" transform="translate(0 3.9999999999999982) scale(0.2800001)"><svg width="100" height="100" x="0" y="0" viewBox="0 0 100 100"><title/><g transform="translate(0,-952.36218)"><path style="text-indent:0;text-transform:none;direction:ltr;block-progression:tb;baseline-shift:baseline;color:#000;enable-background:accumulate" fill="currentColor" fill-opacity="1" stroke="none" marker="none" d="m 26.09375,957.3125 a 3.750375,3.750375 0 0 0 -3.1875,2.125 l -6.59375,13.1875 -5.125,-4.375 a 3.7573171,3.7573171 0 1 0 -4.875,5.71875 l 8.75,7.5 a 3.750375,3.750375 0 0 0 5.78125,-1.1875 l 8.75,-17.5 a 3.750375,3.750375 0 0 0 -3.5,-5.46875 z" display="inline" overflow="visible" visibility="visible"/><rect width="50" height="15" x="40" y="10" fill="currentColor" fill-opacity="1" fill-rule="nonzero" stroke="none" rx="10" ry="10" transform="translate(0,952.36218)"/><path fill="currentColor" fill-opacity="1" fill-rule="nonzero" stroke="none" d="M 25,37.5 C 25,41.642136 21.642136,45 17.5,45 13.357864,45 10,41.642136 10,37.5 10,33.357864 13.357864,30 17.5,30 c 4.142136,0 7.5,3.357864 7.5,7.5 z" transform="translate(0,964.86218)"/><rect width="50" height="15" x="40" y="994.862" fill="currentColor" fill-opacity="1" fill-rule="nonzero" stroke="none" rx="10" ry="10"/><path fill="currentColor" fill-opacity="1" fill-rule="nonzero" stroke="none" d="M 25,37.5 C 25,41.642136 21.642136,45 17.5,45 13.357864,45 10,41.642136 10,37.5 10,33.357864 13.357864,30 17.5,30 c 4.142136,0 7.5,3.357864 7.5,7.5 z" transform="translate(0,997.36218)"/><rect width="50" height="15" x="40" y="1027.362" fill="currentColor" fill-opacity="1" fill-rule="nonzero" stroke="none" rx="10" ry="10"/></g></svg></g><path fill="#393a48" fill-rule="nonzero" d="M12.48 1.85L12.48 4.82L7.90 4.82L7.90 18.94L4.56 18.94L4.56 4.82L0 4.82L0 1.85L12.48 1.85ZM24.26 5.14L24.26 18.94L22.18 18.94L21.22 17.28L17.88 19.08Q15.10 19.08 14.14 17.06L14.14 17.06Q13.66 16.08 13.48 14.94Q13.30 13.80 13.30 12.56Q13.30 11.33 13.32 10.74Q13.34 10.15 13.44 9.37Q13.54 8.59 13.72 8.06Q13.90 7.54 14.23 6.97Q14.57 6.41 15.05 6.07L15.05 6.07Q16.13 5.33 17.86 5.33L17.86 5.33L21.14 5.33L24.26 5.14ZM18.77 15.79L21.14 14.57L21.14 8.14L18.77 8.14Q17.45 8.14 16.93 9.14Q16.42 10.15 16.42 12.16Q16.42 14.16 16.91 14.98Q17.40 15.79 18.77 15.79L18.77 15.79ZM37.06 15.14L37.06 15.14L37.06 15.50Q36.91 17.30 35.53 18.22Q34.15 19.13 32.09 19.13L32.09 19.13Q29.04 19.13 27.82 18.02L27.82 18.02Q26.69 17.02 26.69 15.05L26.69 15.05L26.69 14.76L29.52 14.76Q29.52 15.86 30.10 16.27Q30.67 16.68 32.09 16.68L32.09 16.68Q34.01 16.68 34.01 15.29L34.01 15.29Q34.01 14.14 33.34 13.75L33.34 13.75Q33.02 13.56 32.54 13.46L32.54 13.46L30.12 13.06Q26.95 12.55 26.95 9.10L26.95 9.10Q26.95 7.18 28.36 6.11Q29.76 5.04 31.92 5.04L31.92 5.04Q36.84 5.04 36.84 9.29L36.84 9.29L36.84 9.60L34.13 9.60Q34.08 8.47 33.53 8.06Q32.98 7.66 31.98 7.66Q30.98 7.66 30.48 8.05Q29.98 8.45 29.98 8.93L29.98 8.93Q29.98 10.30 31.08 10.49L31.08 10.49L33.98 11.02Q37.06 11.59 37.06 15.14ZM46.15 11.93L51.46 18.94L47.71 18.94L44.11 14.09L42.74 16.03L42.74 18.94L39.62 18.94L39.62 0.89L42.74 0.89L42.74 12.29L47.11 5.78L50.64 5.78L46.15 11.93ZM65.95 18.94L65.95 8.74L62.88 15.22Q62.21 16.51 61.21 16.51Q60.22 16.51 59.54 15.14L59.54 15.14L56.42 8.74L56.42 18.94L53.09 18.94L53.09 1.85L56.38 1.85L61.20 11.71L66 1.85L69.29 1.85L69.29 18.94L65.95 18.94ZM81.98 5.14L81.98 18.94L79.90 18.94L78.94 17.28L75.60 19.08Q72.82 19.08 71.86 17.06L71.86 17.06Q71.38 16.08 71.20 14.94Q71.02 13.80 71.02 12.56Q71.02 11.33 71.04 10.74Q71.06 10.15 71.16 9.37Q71.26 8.59 71.44 8.06Q71.62 7.54 71.95 6.97Q72.29 6.41 72.77 6.07L72.77 6.07Q73.85 5.33 75.58 5.33L75.58 5.33L78.86 5.33L81.98 5.14ZM76.49 15.79L78.86 14.57L78.86 8.14L76.49 8.14Q75.17 8.14 74.65 9.14Q74.14 10.15 74.14 12.16Q74.14 14.16 74.63 14.98Q75.12 15.79 76.49 15.79L76.49 15.79ZM91.22 16.30L91.22 18.94L89.28 18.94Q87.50 18.94 86.58 17.88Q85.66 16.82 85.66 15.36L85.66 15.36L85.66 8.16L84.34 8.16L84.34 5.78L85.66 5.78L85.66 3.10L88.78 3.10L88.78 5.78L90.98 5.78L90.98 8.16L88.78 8.16L88.78 15.17Q88.78 16.30 89.86 16.30L89.86 16.30L91.22 16.30ZM95.40 0Q96.53 0 96.86 0.35Q97.20 0.70 97.20 1.81Q97.20 2.93 96.85 3.28Q96.50 3.62 95.39 3.62Q94.27 3.62 93.92 3.26Q93.58 2.90 93.58 1.80Q93.58 0.70 93.92 0.35Q94.27 0 95.40 0ZM96.94 5.74L96.94 18.94L93.82 18.94L93.82 5.74L96.94 5.74ZM107.42 13.92L107.42 13.92L110.26 13.90Q110.23 14.09 110.21 14.59Q110.18 15.10 110.17 15.28Q110.16 15.46 110.11 15.84Q110.06 16.22 110.00 16.40Q109.94 16.58 109.85 16.87L109.85 16.87Q109.42 18.12 107.50 18.84L107.50 18.84Q106.27 19.27 104.94 19.27Q103.61 19.27 102.53 18.84Q101.45 18.41 100.82 17.74L100.82 17.74Q99.41 16.25 99.41 12.16Q99.41 8.06 100.82 6.58L100.82 6.58Q101.45 5.90 102.53 5.47Q103.61 5.04 104.93 5.04L104.93 5.04Q107.52 5.04 108.86 6.34Q110.21 7.63 110.21 9.94L110.21 9.94L107.38 9.94Q107.38 8.88 106.85 8.36Q106.32 7.85 104.89 7.85Q103.46 7.85 103.00 8.74Q102.53 9.62 102.53 11.40L102.53 11.40L102.53 12.65Q102.53 15.50 103.63 16.15L103.63 16.15Q104.14 16.46 104.95 16.46Q105.77 16.46 106.28 16.31Q106.80 16.15 107.03 15.77Q107.26 15.38 107.33 15.01Q107.40 14.64 107.42 13.92Z" transform="translate(36, 8.532)"/></svg>